<svg width="320" height="80" viewBox="0 0 320 80" fill="none" xmlns="http://www.w3.org/2000/svg">
  <polygon points="40,10 70,27 70,61 40,78 10,61 10,27" fill="#fff"/>
  <circle cx="40" cy="44" r="15" fill="#fff" fill-opacity="0.7"/>
  <path d="M40 59c-6 0-11-5-11-11s5-11 11-11 11 5 11 11c0 1.7-.4 3.3-1.3 4.7l4 4a1.5 1.5 0 0 1-2.1 2.1l-4-4A10.9 10.9 0 0 1 40 59zm0-18a7 7 0 1 0 0 14 7 7 0 0 0 0-14z" fill="#0f172a"/>
  <text x="90" y="50" font-family="Segoe UI, Roboto, Arial, sans-serif" font-size="36" font-weight="700" fill="#fff" letter-spacing="1">Quant</text>
  <text x="200" y="50" font-family="Segoe UI, Roboto, Arial, sans-serif" font-size="36" font-weight="700" fill="#fff" fill-opacity="0.7" letter-spacing="1">Labs</text>
</svg>
